<svg id="visual" viewBox="0 0 900 600" width="900" height="600" xmlns="http://www.w3.org/2000/svg" xmlns:xlink="http://www.w3.org/1999/xlink" version="1.1"><rect x="0" y="0" width="900" height="600" fill="#092047"></rect><path d="M0 266L90 277L180 208L270 203L360 255L450 284L540 313L630 277L720 213L810 196L900 327L900 601L810 601L720 601L630 601L540 601L450 601L360 601L270 601L180 601L90 601L0 601Z" fill="#0055dd"></path><path d="M0 310L90 271L180 285L270 288L360 246L450 363L540 280L630 255L720 277L810 326L900 283L900 601L810 601L720 601L630 601L540 601L450 601L360 601L270 601L180 601L90 601L0 601Z" fill="#6b4cd6"></path><path d="M0 382L90 395L180 322L270 375L360 317L450 381L540 317L630 403L720 348L810 286L900 393L900 601L810 601L720 601L630 601L540 601L450 601L360 601L270 601L180 601L90 601L0 601Z" fill="#9840ca"></path><path d="M0 405L90 434L180 340L270 403L360 334L450 396L540 355L630 349L720 412L810 381L900 367L900 601L810 601L720 601L630 601L540 601L450 601L360 601L270 601L180 601L90 601L0 601Z" fill="#b932bb"></path><path d="M0 418L90 468L180 450L270 453L360 430L450 381L540 453L630 465L720 417L810 465L900 411L900 601L810 601L720 601L630 601L540 601L450 601L360 601L270 601L180 601L90 601L0 601Z" fill="#d323a9"></path><path d="M0 433L90 458L180 458L270 454L360 480L450 502L540 483L630 494L720 434L810 477L900 471L900 601L810 601L720 601L630 601L540 601L450 601L360 601L270 601L180 601L90 601L0 601Z" fill="#e71896"></path><path d="M0 502L90 487L180 521L270 490L360 485L450 486L540 483L630 507L720 483L810 525L900 527L900 601L810 601L720 601L630 601L540 601L450 601L360 601L270 601L180 601L90 601L0 601Z" fill="#f61a81"></path><path d="M0 564L90 565L180 567L270 556L360 553L450 562L540 566L630 552L720 544L810 562L900 530L900 601L810 601L720 601L630 601L540 601L450 601L360 601L270 601L180 601L90 601L0 601Z" fill="#ff2a6d"></path></svg>