<svg id="visual" viewBox="0 0 900 600" width="900" height="600" xmlns="http://www.w3.org/2000/svg" xmlns:xlink="http://www.w3.org/1999/xlink" version="1.1"><rect x="0" y="0" width="900" height="600" fill="#092047"></rect><path d="M0 448L82 477L164 479L245 503L327 458L409 434L491 486L573 447L655 469L736 453L818 474L900 444L900 601L818 601L736 601L655 601L573 601L491 601L409 601L327 601L245 601L164 601L82 601L0 601Z" fill="#0055dd"></path><path d="M0 465L82 462L164 475L245 496L327 484L409 492L491 506L573 477L655 471L736 476L818 483L900 448L900 601L818 601L736 601L655 601L573 601L491 601L409 601L327 601L245 601L164 601L82 601L0 601Z" fill="#6b4cd6"></path><path d="M0 495L82 514L164 503L245 519L327 520L409 529L491 522L573 506L655 497L736 474L818 474L900 475L900 601L818 601L736 601L655 601L573 601L491 601L409 601L327 601L245 601L164 601L82 601L0 601Z" fill="#9840ca"></path><path d="M0 513L82 507L164 543L245 495L327 527L409 536L491 530L573 512L655 542L736 507L818 526L900 544L900 601L818 601L736 601L655 601L573 601L491 601L409 601L327 601L245 601L164 601L82 601L0 601Z" fill="#b932bb"></path><path d="M0 556L82 556L164 545L245 534L327 520L409 546L491 506L573 519L655 526L736 513L818 512L900 528L900 601L818 601L736 601L655 601L573 601L491 601L409 601L327 601L245 601L164 601L82 601L0 601Z" fill="#d323a9"></path><path d="M0 546L82 533L164 531L245 540L327 566L409 564L491 554L573 525L655 531L736 542L818 560L900 565L900 601L818 601L736 601L655 601L573 601L491 601L409 601L327 601L245 601L164 601L82 601L0 601Z" fill="#e71896"></path><path d="M0 566L82 557L164 571L245 578L327 544L409 558L491 568L573 554L655 569L736 572L818 569L900 574L900 601L818 601L736 601L655 601L573 601L491 601L409 601L327 601L245 601L164 601L82 601L0 601Z" fill="#f61a81"></path><path d="M0 566L82 590L164 588L245 578L327 575L409 576L491 571L573 581L655 566L736 576L818 565L900 572L900 601L818 601L736 601L655 601L573 601L491 601L409 601L327 601L245 601L164 601L82 601L0 601Z" fill="#ff2a6d"></path></svg>